/* XPM */
static char * fordiac_xpm[] = {
"48 48 4 1",
" 	c None",
".	c #000000",
"+	c #FFFFFF",
"@	c #808080",
"                                                ",
" ..............                                 ",
" .............................                  ",
" ............................................   ",
" ............................................   ",
" ............................................   ",
"  ....++++++++++++++++++++++++++++++++++++...@@@",
" .....++++++++++++++++++++++++++++++++++++...@@@",
" .....++++++++++++++++++++++++++++++++++++...@@@",
" .....++++++++++++++++++++++++++++++++++++...@@@",
" .....++++++++++++++++++++++++++++++++++++...@@@",
" .....++++++++++++++++++++++++++++++++++++...@@@",
" .+...++++++++++++++++++++++++++++++++++++...@@@",
" .+...++++++++++++++++++++++++++++++++++++...@@@",
" .....++++++++++++++++++++++++++++++++++++...@@@",
"  ..........++++++++++++++++++++++++.........@@@",
"  ..........++++++++++++++++++++++++.........@@@",
"  ..........++++++++++++++++++++++++.........@@@",
"  ..+++++...++++++++++++++++++++++++...@@@@@@@@@",
"  ..+++++...++++++++++++++++++++++++...@@@@@@@@@",
"  ..+++++...++++++++++++++++++++++++...@@@@@@@@@",
"  ..........++++++++++++++++++++++++.........   ",
"  ..........++++++++++++++++++++++++.........   ",
"  ..........++++++++++++++++++++++++.........   ",
"  ....++++++++++++++++++++++++++++++++++++...@@@",
"  ....++++++++++++++++++++++++++++++++++++...@@@",
"  ....++++++++++++++++++++++++++++++++++++...@@@",
"  ....++++++++++++++++++++++++++++++++++++...@@@",
"  ....++++++++++++++++++++++++++++++++++++...@@@",
"  ....++++++++++++++++++++++++++++++++++++...@@@",
"   ...++++++++++++++++++++++++++++++++++++...@@@",
"   ...++++++++++++++++++++++++++++++++++++...@@@",
"   ...++++++++++++++++++++++++++++++++++++...@@@",
"   ...++++++++++++++++++++++++++++++++++++...@@@",
"   ...++++++++++++++++++++++++++++++++++++...@@@",
"   ...++++++++++++++++++++++++++++++++++++...@@@",
"   ...++++++++++++++++++++++++++++++++++++...@@@",
"   ...++++++++++++++++++++++++++++++++++++...@@@",
"   ...++++++++++++++++++++++++++++++++++++...@@@",
"   ...++++++++++++++++++++++++++++++++++++...@@@",
"   ...++++++++++++++++++++++++++++++++++++...@@@",
"   ...++++++++++++++++++++++++++++++++++++...@@@",
"   ..........................................@@@",
"   ..........................................@@@",
"   ..........................................@@@",
"      @@@@@@@@@@@@@@@@@@@@@@@@@@@@@@@@@@@@@@@@@@",
"      @@@@@@@@@@@@@@@@@@@@@@@@@@@@@@@@@@@@@@@@@@",
"      @@@@@@@@@@@@@@@@@@@@@@@@@@@@@@@@@@@@@@@@@@"};
